<svg width="48" height="48" viewBox="0 0 48 48" fill="none" xmlns="http://www.w3.org/2000/svg">
<path d="M24 3.51749C35.6025 3.51749 45 12.915 45 24.5175C44.997 33.54 39.2415 41.556 30.6945 44.4405C29.6445 44.6505 29.25 43.9935 29.25 43.443C29.25 42.7335 29.277 40.476 29.277 37.668C29.277 35.7 28.6215 34.44 27.8595 33.783C32.532 33.258 37.4415 31.473 37.4415 23.415C37.4415 21.105 36.627 19.2405 35.289 17.772C35.499 17.247 36.234 15.0945 35.079 12.207C35.079 12.207 33.3195 11.6295 29.304 14.3595C27.624 13.887 25.839 13.6515 24.054 13.6515C22.269 13.6515 20.484 13.887 18.804 14.3595C14.7885 11.6565 13.029 12.207 13.029 12.207C11.874 15.0945 12.609 17.247 12.819 17.772C11.481 19.242 10.6665 21.132 10.6665 23.415C10.6665 31.4475 15.549 33.2595 20.2215 33.7845C19.617 34.3095 19.0665 35.229 18.882 36.5925C17.6745 37.1445 14.655 38.037 12.7665 34.86C12.372 34.23 11.1915 32.682 9.5385 32.7075C7.779 32.7345 8.8305 33.705 9.564 34.098C10.4565 34.596 11.4795 36.4605 11.7165 37.065C12.1365 38.2455 13.5015 40.5045 18.777 39.5325C18.777 41.292 18.804 42.945 18.804 43.443C18.804 43.995 18.4095 44.6235 17.3595 44.4405C8.781 41.5845 2.9955 33.558 3 24.516C3 12.9135 12.3975 3.51749 24 3.51749Z" fill="white"/>
</svg>
