<svg width="48" height="48" viewBox="0 0 48 48" fill="none" xmlns="http://www.w3.org/2000/svg">
<path d="M15.3031 3.147C13.0681 3.252 11.5426 3.609 10.2091 4.1325C8.82905 4.671 7.65905 5.3925 6.49355 6.561C5.32955 7.7295 4.61255 8.901 4.07855 10.2825C3.56105 11.619 3.21155 13.146 3.11255 15.3825C3.01355 17.6175 2.99255 18.3375 3.00305 24.039C3.01355 29.7405 3.03905 30.456 3.14705 32.697C3.25355 34.9305 3.60905 36.456 4.13255 37.791C4.67105 39.171 5.39255 40.341 6.56105 41.5065C7.72955 42.6705 8.89955 43.386 10.2856 43.9215C11.6206 44.4375 13.1491 44.79 15.3841 44.8875C17.6191 44.985 18.3391 45.0075 24.0406 44.997C29.7421 44.9865 30.4591 44.961 32.7001 44.8545C34.9411 44.748 36.4576 44.391 37.7926 43.869C39.1726 43.329 40.3441 42.609 41.5081 41.439C42.6721 40.269 43.3891 39.0975 43.9216 37.7145C44.4391 36.3795 44.7901 34.851 44.8876 32.6175C44.9851 30.3765 45.0091 29.661 44.9971 23.958C44.9851 18.255 44.9611 17.541 44.8546 15.3015C44.7481 13.062 44.3926 11.541 43.8691 10.206C43.3291 8.826 42.6091 7.656 41.4406 6.4905C40.2721 5.325 39.0991 4.6095 37.716 4.077C36.3796 3.5595 34.8526 3.207 32.6176 3.111C30.3826 3.015 29.6626 2.9895 23.9596 3C18.2566 3.0105 17.5426 3.036 15.3031 3.144M15.5491 41.1075C13.5016 41.019 12.3901 40.6785 11.6491 40.3935C10.6681 40.0155 9.96905 39.558 9.23105 38.8275C8.49305 38.097 8.03855 37.395 7.65605 36.4155C7.36805 35.6745 7.02155 34.5645 6.92555 32.517C6.82205 30.3045 6.79955 29.64 6.78755 24.033C6.77555 18.426 6.79655 17.763 6.89405 15.549C6.98105 13.503 7.32305 12.39 7.60805 11.649C7.98605 10.6665 8.44205 9.969 9.17405 9.231C9.90605 8.493 10.6066 8.0385 11.5861 7.656C12.3256 7.3665 13.4371 7.023 15.4831 6.9255C17.6971 6.8205 18.3616 6.7995 23.9671 6.7875C29.5726 6.7755 30.2386 6.7965 32.4541 6.894C34.5001 6.9825 35.6131 7.3215 36.3526 7.608C37.3336 7.986 38.0326 8.4405 38.7706 9.174C39.5086 9.9075 39.9631 10.605 40.3471 11.5875C40.6366 12.3255 40.9801 13.4355 41.0761 15.483C41.1811 17.697 41.2051 18.3615 41.2156 23.967C41.2261 29.5725 41.2066 30.2385 41.1091 32.451C41.0191 34.4985 40.6801 35.61 40.3951 36.3525C40.0171 37.3335 39.5611 38.0325 38.8276 38.7705C38.0941 39.5085 37.3951 39.963 36.4156 40.3455C35.6761 40.6335 34.5646 40.9785 32.5201 41.076C30.3061 41.1795 29.6416 41.202 24.0346 41.214C18.4276 41.226 17.7631 41.2035 15.5491 41.1075ZM32.6686 12.7755C32.6716 14.1675 33.8011 15.294 35.1931 15.291C36.5851 15.288 37.7116 14.1585 37.7086 12.7665C37.7056 11.3745 36.576 10.248 35.1841 10.251C33.7921 10.254 32.6671 11.3835 32.6686 12.7755ZM13.2181 24.0195C13.2301 29.9745 18.0661 34.7925 24.0211 34.7805C29.9761 34.7685 34.7956 29.9325 34.7851 23.9775C34.7731 18.0225 29.9356 13.203 23.9806 13.215C18.0256 13.227 13.2061 18.0645 13.2181 24.0195ZM17.0026 24.012C16.9951 20.1465 20.1226 17.0055 23.9896 16.998C27.8551 16.9905 30.9961 20.118 31.0036 23.985C31.0111 27.8505 27.8836 30.9915 24.0166 30.999C20.1511 31.0065 17.0101 27.8805 17.0026 24.015" fill="#FFFBFB"/>
</svg>
