<svg width="48" height="48" viewBox="0 0 48 48" fill="none" xmlns="http://www.w3.org/2000/svg">
<path fill-rule="evenodd" clip-rule="evenodd" d="M39.1665 4.5H8.8335C6.441 4.5 4.5 6.4395 4.5 8.8335V39.1665C4.5 41.559 6.4395 43.5 8.8335 43.5H39.1665C41.559 43.5 43.5 41.5605 43.5 39.1665V8.8335C43.5 6.441 41.5605 4.5 39.1665 4.5ZM16.2915 38.0835H10.476V19.305H16.2915V38.0835ZM13.356 16.8465C11.4555 16.8465 9.9165 15.2955 9.9165 13.3815C9.9165 11.4675 11.4555 9.9165 13.356 9.9165C15.2565 9.9165 16.794 11.4675 16.794 13.3815C16.794 15.2955 15.255 16.8465 13.356 16.8465ZM38.0835 38.0835H32.2965V28.227C32.2965 25.524 31.269 24.0135 29.13 24.0135C26.8035 24.0135 25.587 25.5855 25.587 28.227V38.0835H20.01V19.305H25.587V21.834C25.587 21.834 27.264 18.7305 31.2495 18.7305C35.235 18.7305 38.0835 21.162 38.0835 26.193V38.0835Z" fill="white"/>
</svg>
